<svg xmlns="http://www.w3.org/2000/svg" xmlns:xlink="http://www.w3.org/1999/xlink" width="3200" zoomAndPan="magnify" viewBox="0 0 2400 675.000002" height="900" preserveAspectRatio="xMidYMid meet" version="1.0"><metadata><ContainsAiGeneratedContent>Yes</ContainsAiGeneratedContent></metadata><defs><filter x="0%" y="0%" width="100%" height="100%" id="fd014df319"><feColorMatrix values="0 0 0 0 1 0 0 0 0 1 0 0 0 0 1 0 0 0 1 0" color-interpolation-filters="sRGB"/></filter><g/><clipPath id="9e49b284af"><path d="M 1.773438 0 L 2398.222656 0 L 2398.222656 674 L 1.773438 674 Z M 1.773438 0 " clip-rule="nonzero"/></clipPath><clipPath id="e13bfcb143"><path d="M 0.773438 0 L 2397.222656 0 L 2397.222656 674 L 0.773438 674 Z M 0.773438 0 " clip-rule="nonzero"/></clipPath><clipPath id="7f401a51ac"><path d="M 0.773438 0 L 2397.222656 0 L 2397.222656 674 L 0.773438 674 Z M 0.773438 0 " clip-rule="nonzero"/></clipPath><clipPath id="2bd29d3408"><path d="M 0.773438 0 L 2397.222656 0 L 2397.222656 674 L 0.773438 674 Z M 0.773438 0 " clip-rule="nonzero"/></clipPath><linearGradient x1="-0.055945" gradientTransform="matrix(2.559063, 0, 0, 2.558931, 0.918311, 54.61602)" y1="127.5" x2="936.39988" gradientUnits="userSpaceOnUse" y2="127.5" id="a8578dd01d"><stop stop-opacity="1" stop-color="rgb(54.899597%, 32.159424%, 100%)" offset="0"/><stop stop-opacity="1" stop-color="rgb(54.826355%, 32.376099%, 99.961853%)" offset="0.00390625"/><stop stop-opacity="1" stop-color="rgb(54.753113%, 32.594299%, 99.923706%)" offset="0.0078125"/><stop stop-opacity="1" stop-color="rgb(54.679871%, 32.8125%, 99.885559%)" offset="0.0117187"/><stop stop-opacity="1" stop-color="rgb(54.606628%, 33.032227%, 99.847412%)" offset="0.015625"/><stop stop-opacity="1" stop-color="rgb(54.53186%, 33.250427%, 99.807739%)" offset="0.0195312"/><stop stop-opacity="1" stop-color="rgb(54.458618%, 33.470154%, 99.769592%)" offset="0.0234375"/><stop stop-opacity="1" stop-color="rgb(54.385376%, 33.68988%, 99.731445%)" offset="0.0273438"/><stop stop-opacity="1" stop-color="rgb(54.312134%, 33.909607%, 99.693298%)" offset="0.03125"/><stop stop-opacity="1" stop-color="rgb(54.238892%, 34.127808%, 99.655151%)" offset="0.0351562"/><stop stop-opacity="1" stop-color="rgb(54.165649%, 34.347534%, 99.617004%)" offset="0.0390625"/><stop stop-opacity="1" stop-color="rgb(54.090881%, 34.565735%, 99.578857%)" offset="0.0429687"/><stop stop-opacity="1" stop-color="rgb(54.017639%, 34.785461%, 99.54071%)" offset="0.046875"/><stop stop-opacity="1" stop-color="rgb(53.944397%, 35.003662%, 99.502563%)" offset="0.0507812"/><stop stop-opacity="1" stop-color="rgb(53.871155%, 35.223389%, 99.464417%)" offset="0.0546875"/><stop stop-opacity="1" stop-color="rgb(53.796387%, 35.441589%, 99.424744%)" offset="0.0585937"/><stop stop-opacity="1" stop-color="rgb(53.723145%, 35.661316%, 99.386597%)" offset="0.0625"/><stop stop-opacity="1" stop-color="rgb(53.649902%, 35.881042%, 99.34845%)" offset="0.0664062"/><stop stop-opacity="1" stop-color="rgb(53.57666%, 36.100769%, 99.310303%)" offset="0.0703125"/><stop stop-opacity="1" stop-color="rgb(53.503418%, 36.31897%, 99.272156%)" offset="0.0742188"/><stop stop-opacity="1" stop-color="rgb(53.430176%, 36.538696%, 99.234009%)" offset="0.078125"/><stop stop-opacity="1" stop-color="rgb(53.355408%, 36.756897%, 99.195862%)" offset="0.0820312"/><stop stop-opacity="1" stop-color="rgb(53.282166%, 36.976624%, 99.157715%)" offset="0.0859375"/><stop stop-opacity="1" stop-color="rgb(53.208923%, 37.194824%, 99.119568%)" offset="0.0898438"/><stop stop-opacity="1" stop-color="rgb(53.135681%, 37.414551%, 99.081421%)" offset="0.09375"/><stop stop-opacity="1" stop-color="rgb(53.060913%, 37.632751%, 99.041748%)" offset="0.0976562"/><stop stop-opacity="1" stop-color="rgb(52.987671%, 37.852478%, 99.003601%)" offset="0.101562"/><stop stop-opacity="1" stop-color="rgb(52.914429%, 38.072205%, 98.965454%)" offset="0.105469"/><stop stop-opacity="1" stop-color="rgb(52.841187%, 38.291931%, 98.927307%)" offset="0.109375"/><stop stop-opacity="1" stop-color="rgb(52.767944%, 38.510132%, 98.88916%)" offset="0.113281"/><stop stop-opacity="1" stop-color="rgb(52.694702%, 38.729858%, 98.851013%)" offset="0.117187"/><stop stop-opacity="1" stop-color="rgb(52.619934%, 38.948059%, 98.812866%)" offset="0.121094"/><stop stop-opacity="1" stop-color="rgb(52.546692%, 39.167786%, 98.774719%)" offset="0.125"/><stop stop-opacity="1" stop-color="rgb(52.47345%, 39.385986%, 98.736572%)" offset="0.128906"/><stop stop-opacity="1" stop-color="rgb(52.400208%, 39.605713%, 98.698425%)" offset="0.132812"/><stop stop-opacity="1" stop-color="rgb(52.326965%, 39.825439%, 98.658752%)" offset="0.136719"/><stop stop-opacity="1" stop-color="rgb(52.253723%, 40.045166%, 98.620605%)" offset="0.140625"/><stop stop-opacity="1" stop-color="rgb(52.178955%, 40.263367%, 98.582458%)" offset="0.144531"/><stop stop-opacity="1" stop-color="rgb(52.105713%, 40.483093%, 98.544312%)" offset="0.148437"/><stop stop-opacity="1" stop-color="rgb(52.032471%, 40.701294%, 98.506165%)" offset="0.152344"/><stop stop-opacity="1" stop-color="rgb(51.959229%, 40.921021%, 98.468018%)" offset="0.15625"/><stop stop-opacity="1" stop-color="rgb(51.88446%, 41.139221%, 98.429871%)" offset="0.160156"/><stop stop-opacity="1" stop-color="rgb(51.811218%, 41.358948%, 98.391724%)" offset="0.164062"/><stop stop-opacity="1" stop-color="rgb(51.737976%, 41.577148%, 98.353577%)" offset="0.167969"/><stop stop-opacity="1" stop-color="rgb(51.664734%, 41.796875%, 98.31543%)" offset="0.171875"/><stop stop-opacity="1" stop-color="rgb(51.591492%, 42.016602%, 98.275757%)" offset="0.175781"/><stop stop-opacity="1" stop-color="rgb(51.51825%, 42.236328%, 98.23761%)" offset="0.179688"/><stop stop-opacity="1" stop-color="rgb(51.443481%, 42.454529%, 98.199463%)" offset="0.183594"/><stop stop-opacity="1" stop-color="rgb(51.370239%, 42.674255%, 98.161316%)" offset="0.1875"/><stop stop-opacity="1" stop-color="rgb(51.296997%, 42.892456%, 98.123169%)" offset="0.191406"/><stop stop-opacity="1" stop-color="rgb(51.223755%, 43.112183%, 98.085022%)" offset="0.195312"/><stop stop-opacity="1" stop-color="rgb(51.148987%, 43.330383%, 98.046875%)" offset="0.199219"/><stop stop-opacity="1" stop-color="rgb(51.075745%, 43.55011%, 98.008728%)" offset="0.203125"/><stop stop-opacity="1" stop-color="rgb(51.002502%, 43.769836%, 97.970581%)" offset="0.207031"/><stop stop-opacity="1" stop-color="rgb(50.92926%, 43.989563%, 97.932434%)" offset="0.210938"/><stop stop-opacity="1" stop-color="rgb(50.856018%, 44.207764%, 97.894287%)" offset="0.214844"/><stop stop-opacity="1" stop-color="rgb(50.782776%, 44.42749%, 97.85614%)" offset="0.21875"/><stop stop-opacity="1" stop-color="rgb(50.708008%, 44.645691%, 97.816467%)" offset="0.222656"/><stop stop-opacity="1" stop-color="rgb(50.634766%, 44.865417%, 97.77832%)" offset="0.226563"/><stop stop-opacity="1" stop-color="rgb(50.561523%, 45.083618%, 97.740173%)" offset="0.230469"/><stop stop-opacity="1" stop-color="rgb(50.488281%, 45.303345%, 97.702026%)" offset="0.234375"/><stop stop-opacity="1" stop-color="rgb(50.413513%, 45.521545%, 97.663879%)" offset="0.238281"/><stop stop-opacity="1" stop-color="rgb(50.340271%, 45.741272%, 97.625732%)" offset="0.242188"/><stop stop-opacity="1" stop-color="rgb(50.267029%, 45.960999%, 97.587585%)" offset="0.246094"/><stop stop-opacity="1" stop-color="rgb(50.193787%, 46.180725%, 97.549438%)" offset="0.25"/><stop stop-opacity="1" stop-color="rgb(50.120544%, 46.398926%, 97.511292%)" offset="0.253906"/><stop stop-opacity="1" stop-color="rgb(50.047302%, 46.618652%, 97.473145%)" offset="0.257812"/><stop stop-opacity="1" stop-color="rgb(49.972534%, 46.836853%, 97.433472%)" offset="0.261719"/><stop stop-opacity="1" stop-color="rgb(49.899292%, 47.05658%, 97.395325%)" offset="0.265625"/><stop stop-opacity="1" stop-color="rgb(49.82605%, 47.27478%, 97.357178%)" offset="0.269531"/><stop stop-opacity="1" stop-color="rgb(49.752808%, 47.494507%, 97.319031%)" offset="0.273438"/><stop stop-opacity="1" stop-color="rgb(49.679565%, 47.712708%, 97.280884%)" offset="0.277344"/><stop stop-opacity="1" stop-color="rgb(49.606323%, 47.932434%, 97.242737%)" offset="0.28125"/><stop stop-opacity="1" stop-color="rgb(49.531555%, 48.152161%, 97.20459%)" offset="0.285156"/><stop stop-opacity="1" stop-color="rgb(49.458313%, 48.371887%, 97.166443%)" offset="0.289062"/><stop stop-opacity="1" stop-color="rgb(49.385071%, 48.590088%, 97.128296%)" offset="0.292969"/><stop stop-opacity="1" stop-color="rgb(49.311829%, 48.809814%, 97.090149%)" offset="0.296875"/><stop stop-opacity="1" stop-color="rgb(49.237061%, 49.028015%, 97.050476%)" offset="0.300781"/><stop stop-opacity="1" stop-color="rgb(49.163818%, 49.247742%, 97.012329%)" offset="0.304687"/><stop stop-opacity="1" stop-color="rgb(49.090576%, 49.465942%, 96.974182%)" offset="0.308594"/><stop stop-opacity="1" stop-color="rgb(49.017334%, 49.685669%, 96.936035%)" offset="0.3125"/><stop stop-opacity="1" stop-color="rgb(48.944092%, 49.905396%, 96.897888%)" offset="0.316406"/><stop stop-opacity="1" stop-color="rgb(48.87085%, 50.125122%, 96.859741%)" offset="0.320312"/><stop stop-opacity="1" stop-color="rgb(48.796082%, 50.343323%, 96.821594%)" offset="0.324219"/><stop stop-opacity="1" stop-color="rgb(48.722839%, 50.563049%, 96.783447%)" offset="0.328125"/><stop stop-opacity="1" stop-color="rgb(48.649597%, 50.78125%, 96.7453%)" offset="0.332031"/><stop stop-opacity="1" stop-color="rgb(48.576355%, 51.000977%, 96.707153%)" offset="0.335938"/><stop stop-opacity="1" stop-color="rgb(48.501587%, 51.219177%, 96.66748%)" offset="0.339844"/><stop stop-opacity="1" stop-color="rgb(48.428345%, 51.438904%, 96.629333%)" offset="0.34375"/><stop stop-opacity="1" stop-color="rgb(48.355103%, 51.657104%, 96.591187%)" offset="0.347656"/><stop stop-opacity="1" stop-color="rgb(48.28186%, 51.876831%, 96.55304%)" offset="0.351562"/><stop stop-opacity="1" stop-color="rgb(48.208618%, 52.096558%, 96.514893%)" offset="0.355469"/><stop stop-opacity="1" stop-color="rgb(48.135376%, 52.316284%, 96.476746%)" offset="0.359375"/><stop stop-opacity="1" stop-color="rgb(48.060608%, 52.534485%, 96.438599%)" offset="0.363281"/><stop stop-opacity="1" stop-color="rgb(47.987366%, 52.754211%, 96.400452%)" offset="0.367188"/><stop stop-opacity="1" stop-color="rgb(47.914124%, 52.972412%, 96.362305%)" offset="0.371094"/><stop stop-opacity="1" stop-color="rgb(47.840881%, 53.192139%, 96.324158%)" offset="0.375"/><stop stop-opacity="1" stop-color="rgb(47.767639%, 53.410339%, 96.286011%)" offset="0.378906"/><stop stop-opacity="1" stop-color="rgb(47.694397%, 53.630066%, 96.247864%)" offset="0.382812"/><stop stop-opacity="1" stop-color="rgb(47.619629%, 53.849792%, 96.208191%)" offset="0.386719"/><stop stop-opacity="1" stop-color="rgb(47.546387%, 54.069519%, 96.170044%)" offset="0.390625"/><stop stop-opacity="1" stop-color="rgb(47.473145%, 54.28772%, 96.131897%)" offset="0.394531"/><stop stop-opacity="1" stop-color="rgb(47.399902%, 54.507446%, 96.09375%)" offset="0.398438"/><stop stop-opacity="1" stop-color="rgb(47.325134%, 54.725647%, 96.055603%)" offset="0.402344"/><stop stop-opacity="1" stop-color="rgb(47.251892%, 54.945374%, 96.017456%)" offset="0.40625"/><stop stop-opacity="1" stop-color="rgb(47.17865%, 55.163574%, 95.979309%)" offset="0.410156"/><stop stop-opacity="1" stop-color="rgb(47.105408%, 55.383301%, 95.941162%)" offset="0.414062"/><stop stop-opacity="1" stop-color="rgb(47.032166%, 55.601501%, 95.903015%)" offset="0.417969"/><stop stop-opacity="1" stop-color="rgb(46.958923%, 55.821228%, 95.864868%)" offset="0.421875"/><stop stop-opacity="1" stop-color="rgb(46.884155%, 56.040955%, 95.825195%)" offset="0.425781"/><stop stop-opacity="1" stop-color="rgb(46.810913%, 56.260681%, 95.787048%)" offset="0.429688"/><stop stop-opacity="1" stop-color="rgb(46.737671%, 56.478882%, 95.748901%)" offset="0.433594"/><stop stop-opacity="1" stop-color="rgb(46.664429%, 56.698608%, 95.710754%)" offset="0.4375"/><stop stop-opacity="1" stop-color="rgb(46.589661%, 56.916809%, 95.672607%)" offset="0.441406"/><stop stop-opacity="1" stop-color="rgb(46.516418%, 57.136536%, 95.63446%)" offset="0.445313"/><stop stop-opacity="1" stop-color="rgb(46.443176%, 57.354736%, 95.596313%)" offset="0.449219"/><stop stop-opacity="1" stop-color="rgb(46.369934%, 57.574463%, 95.558167%)" offset="0.453125"/><stop stop-opacity="1" stop-color="rgb(46.296692%, 57.792664%, 95.52002%)" offset="0.457031"/><stop stop-opacity="1" stop-color="rgb(46.22345%, 58.01239%, 95.481873%)" offset="0.460938"/><stop stop-opacity="1" stop-color="rgb(46.148682%, 58.232117%, 95.4422%)" offset="0.464844"/><stop stop-opacity="1" stop-color="rgb(46.075439%, 58.451843%, 95.404053%)" offset="0.46875"/><stop stop-opacity="1" stop-color="rgb(46.002197%, 58.670044%, 95.365906%)" offset="0.472656"/><stop stop-opacity="1" stop-color="rgb(45.928955%, 58.889771%, 95.327759%)" offset="0.476562"/><stop stop-opacity="1" stop-color="rgb(45.854187%, 59.107971%, 95.289612%)" offset="0.480469"/><stop stop-opacity="1" stop-color="rgb(45.780945%, 59.327698%, 95.251465%)" offset="0.484375"/><stop stop-opacity="1" stop-color="rgb(45.707703%, 59.545898%, 95.213318%)" offset="0.488281"/><stop stop-opacity="1" stop-color="rgb(45.63446%, 59.765625%, 95.175171%)" offset="0.492188"/><stop stop-opacity="1" stop-color="rgb(45.561218%, 59.985352%, 95.137024%)" offset="0.496094"/><stop stop-opacity="1" stop-color="rgb(45.487976%, 60.205078%, 95.098877%)" offset="0.5"/><stop stop-opacity="1" stop-color="rgb(45.413208%, 60.423279%, 95.059204%)" offset="0.503906"/><stop stop-opacity="1" stop-color="rgb(45.339966%, 60.643005%, 95.021057%)" offset="0.507812"/><stop stop-opacity="1" stop-color="rgb(45.266724%, 60.861206%, 94.98291%)" offset="0.511719"/><stop stop-opacity="1" stop-color="rgb(45.193481%, 61.080933%, 94.944763%)" offset="0.515625"/><stop stop-opacity="1" stop-color="rgb(45.120239%, 61.299133%, 94.906616%)" offset="0.519531"/><stop stop-opacity="1" stop-color="rgb(45.046997%, 61.51886%, 94.868469%)" offset="0.523438"/><stop stop-opacity="1" stop-color="rgb(44.972229%, 61.737061%, 94.830322%)" offset="0.527344"/><stop stop-opacity="1" stop-color="rgb(44.898987%, 61.956787%, 94.792175%)" offset="0.53125"/><stop stop-opacity="1" stop-color="rgb(44.825745%, 62.176514%, 94.754028%)" offset="0.535156"/><stop stop-opacity="1" stop-color="rgb(44.752502%, 62.39624%, 94.715881%)" offset="0.539062"/><stop stop-opacity="1" stop-color="rgb(44.677734%, 62.614441%, 94.676208%)" offset="0.542969"/><stop stop-opacity="1" stop-color="rgb(44.604492%, 62.834167%, 94.638062%)" offset="0.546875"/><stop stop-opacity="1" stop-color="rgb(44.53125%, 63.052368%, 94.599915%)" offset="0.550781"/><stop stop-opacity="1" stop-color="rgb(44.458008%, 63.272095%, 94.561768%)" offset="0.554687"/><stop stop-opacity="1" stop-color="rgb(44.384766%, 63.490295%, 94.523621%)" offset="0.558594"/><stop stop-opacity="1" stop-color="rgb(44.311523%, 63.710022%, 94.485474%)" offset="0.5625"/><stop stop-opacity="1" stop-color="rgb(44.236755%, 63.928223%, 94.447327%)" offset="0.566406"/><stop stop-opacity="1" stop-color="rgb(44.163513%, 64.147949%, 94.40918%)" offset="0.570312"/><stop stop-opacity="1" stop-color="rgb(44.090271%, 64.367676%, 94.371033%)" offset="0.574219"/><stop stop-opacity="1" stop-color="rgb(44.017029%, 64.587402%, 94.332886%)" offset="0.578125"/><stop stop-opacity="1" stop-color="rgb(43.942261%, 64.805603%, 94.294739%)" offset="0.582031"/><stop stop-opacity="1" stop-color="rgb(43.869019%, 65.02533%, 94.256592%)" offset="0.585938"/><stop stop-opacity="1" stop-color="rgb(43.795776%, 65.24353%, 94.216919%)" offset="0.589844"/><stop stop-opacity="1" stop-color="rgb(43.722534%, 65.463257%, 94.178772%)" offset="0.59375"/><stop stop-opacity="1" stop-color="rgb(43.649292%, 65.681458%, 94.140625%)" offset="0.597656"/><stop stop-opacity="1" stop-color="rgb(43.57605%, 65.901184%, 94.102478%)" offset="0.601562"/><stop stop-opacity="1" stop-color="rgb(43.501282%, 66.120911%, 94.064331%)" offset="0.605469"/><stop stop-opacity="1" stop-color="rgb(43.42804%, 66.340637%, 94.026184%)" offset="0.609375"/><stop stop-opacity="1" stop-color="rgb(43.354797%, 66.558838%, 93.988037%)" offset="0.613281"/><stop stop-opacity="1" stop-color="rgb(43.281555%, 66.778564%, 93.94989%)" offset="0.617188"/><stop stop-opacity="1" stop-color="rgb(43.206787%, 66.996765%, 93.911743%)" offset="0.621094"/><stop stop-opacity="1" stop-color="rgb(43.133545%, 67.216492%, 93.873596%)" offset="0.625"/><stop stop-opacity="1" stop-color="rgb(43.060303%, 67.434692%, 93.833923%)" offset="0.628906"/><stop stop-opacity="1" stop-color="rgb(42.987061%, 67.654419%, 93.795776%)" offset="0.632812"/><stop stop-opacity="1" stop-color="rgb(42.913818%, 67.87262%, 93.757629%)" offset="0.636719"/><stop stop-opacity="1" stop-color="rgb(42.840576%, 68.092346%, 93.719482%)" offset="0.640625"/><stop stop-opacity="1" stop-color="rgb(42.765808%, 68.312073%, 93.681335%)" offset="0.644531"/><stop stop-opacity="1" stop-color="rgb(42.692566%, 68.531799%, 93.643188%)" offset="0.648438"/><stop stop-opacity="1" stop-color="rgb(42.619324%, 68.75%, 93.605042%)" offset="0.652344"/><stop stop-opacity="1" stop-color="rgb(42.546082%, 68.969727%, 93.566895%)" offset="0.65625"/><stop stop-opacity="1" stop-color="rgb(42.472839%, 69.187927%, 93.528748%)" offset="0.660156"/><stop stop-opacity="1" stop-color="rgb(42.399597%, 69.407654%, 93.490601%)" offset="0.664062"/><stop stop-opacity="1" stop-color="rgb(42.324829%, 69.625854%, 93.450928%)" offset="0.667969"/><stop stop-opacity="1" stop-color="rgb(42.251587%, 69.845581%, 93.412781%)" offset="0.671875"/><stop stop-opacity="1" stop-color="rgb(42.178345%, 70.065308%, 93.374634%)" offset="0.675781"/><stop stop-opacity="1" stop-color="rgb(42.105103%, 70.285034%, 93.336487%)" offset="0.679688"/><stop stop-opacity="1" stop-color="rgb(42.030334%, 70.503235%, 93.29834%)" offset="0.683594"/><stop stop-opacity="1" stop-color="rgb(41.957092%, 70.722961%, 93.260193%)" offset="0.6875"/><stop stop-opacity="1" stop-color="rgb(41.88385%, 70.941162%, 93.222046%)" offset="0.691406"/><stop stop-opacity="1" stop-color="rgb(41.810608%, 71.160889%, 93.183899%)" offset="0.695312"/><stop stop-opacity="1" stop-color="rgb(41.737366%, 71.379089%, 93.145752%)" offset="0.699219"/><stop stop-opacity="1" stop-color="rgb(41.664124%, 71.598816%, 93.107605%)" offset="0.703125"/><stop stop-opacity="1" stop-color="rgb(41.589355%, 71.817017%, 93.067932%)" offset="0.707031"/><stop stop-opacity="1" stop-color="rgb(41.516113%, 72.036743%, 93.029785%)" offset="0.710938"/><stop stop-opacity="1" stop-color="rgb(41.442871%, 72.25647%, 92.991638%)" offset="0.714844"/><stop stop-opacity="1" stop-color="rgb(41.369629%, 72.476196%, 92.953491%)" offset="0.71875"/><stop stop-opacity="1" stop-color="rgb(41.294861%, 72.694397%, 92.915344%)" offset="0.722656"/><stop stop-opacity="1" stop-color="rgb(41.221619%, 72.914124%, 92.877197%)" offset="0.726562"/><stop stop-opacity="1" stop-color="rgb(41.148376%, 73.132324%, 92.83905%)" offset="0.730469"/><stop stop-opacity="1" stop-color="rgb(41.075134%, 73.352051%, 92.800903%)" offset="0.734375"/><stop stop-opacity="1" stop-color="rgb(41.001892%, 73.570251%, 92.762756%)" offset="0.738281"/><stop stop-opacity="1" stop-color="rgb(40.92865%, 73.789978%, 92.724609%)" offset="0.742187"/><stop stop-opacity="1" stop-color="rgb(40.853882%, 74.008179%, 92.686462%)" offset="0.746094"/><stop stop-opacity="1" stop-color="rgb(40.78064%, 74.227905%, 92.648315%)" offset="0.75"/><stop stop-opacity="1" stop-color="rgb(40.707397%, 74.447632%, 92.608643%)" offset="0.753906"/><stop stop-opacity="1" stop-color="rgb(40.634155%, 74.667358%, 92.570496%)" offset="0.757813"/><stop stop-opacity="1" stop-color="rgb(40.560913%, 74.885559%, 92.532349%)" offset="0.761719"/><stop stop-opacity="1" stop-color="rgb(40.487671%, 75.105286%, 92.494202%)" offset="0.765625"/><stop stop-opacity="1" stop-color="rgb(40.412903%, 75.323486%, 92.456055%)" offset="0.769531"/><stop stop-opacity="1" stop-color="rgb(40.339661%, 75.543213%, 92.417908%)" offset="0.773438"/><stop stop-opacity="1" stop-color="rgb(40.266418%, 75.761414%, 92.379761%)" offset="0.777344"/><stop stop-opacity="1" stop-color="rgb(40.193176%, 75.98114%, 92.341614%)" offset="0.78125"/><stop stop-opacity="1" stop-color="rgb(40.118408%, 76.200867%, 92.303467%)" offset="0.785156"/><stop stop-opacity="1" stop-color="rgb(40.045166%, 76.420593%, 92.26532%)" offset="0.789062"/><stop stop-opacity="1" stop-color="rgb(39.971924%, 76.638794%, 92.225647%)" offset="0.792969"/><stop stop-opacity="1" stop-color="rgb(39.898682%, 76.858521%, 92.1875%)" offset="0.796875"/><stop stop-opacity="1" stop-color="rgb(39.825439%, 77.076721%, 92.149353%)" offset="0.800781"/><stop stop-opacity="1" stop-color="rgb(39.752197%, 77.296448%, 92.111206%)" offset="0.804688"/><stop stop-opacity="1" stop-color="rgb(39.677429%, 77.514648%, 92.073059%)" offset="0.808594"/><stop stop-opacity="1" stop-color="rgb(39.604187%, 77.734375%, 92.034912%)" offset="0.8125"/><stop stop-opacity="1" stop-color="rgb(39.530945%, 77.952576%, 91.996765%)" offset="0.816406"/><stop stop-opacity="1" stop-color="rgb(39.457703%, 78.172302%, 91.958618%)" offset="0.820312"/><stop stop-opacity="1" stop-color="rgb(39.382935%, 78.392029%, 91.920471%)" offset="0.824219"/><stop stop-opacity="1" stop-color="rgb(39.309692%, 78.611755%, 91.882324%)" offset="0.828125"/><stop stop-opacity="1" stop-color="rgb(39.23645%, 78.829956%, 91.842651%)" offset="0.832031"/><stop stop-opacity="1" stop-color="rgb(39.163208%, 79.049683%, 91.804504%)" offset="0.835938"/><stop stop-opacity="1" stop-color="rgb(39.089966%, 79.267883%, 91.766357%)" offset="0.839844"/><stop stop-opacity="1" stop-color="rgb(39.016724%, 79.48761%, 91.72821%)" offset="0.84375"/><stop stop-opacity="1" stop-color="rgb(38.941956%, 79.705811%, 91.690063%)" offset="0.847656"/><stop stop-opacity="1" stop-color="rgb(38.868713%, 79.925537%, 91.651917%)" offset="0.851562"/><stop stop-opacity="1" stop-color="rgb(38.795471%, 80.145264%, 91.61377%)" offset="0.855469"/><stop stop-opacity="1" stop-color="rgb(38.722229%, 80.36499%, 91.575623%)" offset="0.859375"/><stop stop-opacity="1" stop-color="rgb(38.647461%, 80.583191%, 91.537476%)" offset="0.863281"/><stop stop-opacity="1" stop-color="rgb(38.574219%, 80.802917%, 91.499329%)" offset="0.867188"/><stop stop-opacity="1" stop-color="rgb(38.500977%, 81.021118%, 91.459656%)" offset="0.871094"/><stop stop-opacity="1" stop-color="rgb(38.427734%, 81.240845%, 91.421509%)" offset="0.875"/><stop stop-opacity="1" stop-color="rgb(38.354492%, 81.459045%, 91.383362%)" offset="0.878906"/><stop stop-opacity="1" stop-color="rgb(38.28125%, 81.678772%, 91.345215%)" offset="0.882812"/><stop stop-opacity="1" stop-color="rgb(38.206482%, 81.896973%, 91.307068%)" offset="0.886719"/><stop stop-opacity="1" stop-color="rgb(38.13324%, 82.116699%, 91.268921%)" offset="0.890625"/><stop stop-opacity="1" stop-color="rgb(38.059998%, 82.336426%, 91.230774%)" offset="0.894531"/><stop stop-opacity="1" stop-color="rgb(37.986755%, 82.556152%, 91.192627%)" offset="0.898438"/><stop stop-opacity="1" stop-color="rgb(37.913513%, 82.774353%, 91.15448%)" offset="0.902344"/><stop stop-opacity="1" stop-color="rgb(37.840271%, 82.99408%, 91.116333%)" offset="0.90625"/><stop stop-opacity="1" stop-color="rgb(37.765503%, 83.21228%, 91.078186%)" offset="0.910156"/><stop stop-opacity="1" stop-color="rgb(37.692261%, 83.432007%, 91.040039%)" offset="0.914062"/><stop stop-opacity="1" stop-color="rgb(37.619019%, 83.650208%, 91.000366%)" offset="0.917969"/><stop stop-opacity="1" stop-color="rgb(37.545776%, 83.869934%, 90.962219%)" offset="0.921875"/><stop stop-opacity="1" stop-color="rgb(37.471008%, 84.088135%, 90.924072%)" offset="0.925781"/><stop stop-opacity="1" stop-color="rgb(37.397766%, 84.307861%, 90.885925%)" offset="0.929688"/><stop stop-opacity="1" stop-color="rgb(37.324524%, 84.527588%, 90.847778%)" offset="0.933594"/><stop stop-opacity="1" stop-color="rgb(37.251282%, 84.747314%, 90.809631%)" offset="0.9375"/><stop stop-opacity="1" stop-color="rgb(37.17804%, 84.965515%, 90.771484%)" offset="0.941406"/><stop stop-opacity="1" stop-color="rgb(37.104797%, 85.185242%, 90.733337%)" offset="0.945313"/><stop stop-opacity="1" stop-color="rgb(37.030029%, 85.403442%, 90.69519%)" offset="0.949219"/><stop stop-opacity="1" stop-color="rgb(36.956787%, 85.623169%, 90.657043%)" offset="0.953125"/><stop stop-opacity="1" stop-color="rgb(36.883545%, 85.84137%, 90.617371%)" offset="0.957031"/><stop stop-opacity="1" stop-color="rgb(36.810303%, 86.061096%, 90.579224%)" offset="0.960938"/><stop stop-opacity="1" stop-color="rgb(36.735535%, 86.280823%, 90.541077%)" offset="0.964844"/><stop stop-opacity="1" stop-color="rgb(36.662292%, 86.500549%, 90.50293%)" offset="0.96875"/><stop stop-opacity="1" stop-color="rgb(36.58905%, 86.71875%, 90.464783%)" offset="0.972656"/><stop stop-opacity="1" stop-color="rgb(36.515808%, 86.938477%, 90.426636%)" offset="0.976562"/><stop stop-opacity="1" stop-color="rgb(36.442566%, 87.156677%, 90.388489%)" offset="0.980469"/><stop stop-opacity="1" stop-color="rgb(36.369324%, 87.376404%, 90.350342%)" offset="0.984375"/><stop stop-opacity="1" stop-color="rgb(36.294556%, 87.594604%, 90.312195%)" offset="0.988281"/><stop stop-opacity="1" stop-color="rgb(36.221313%, 87.814331%, 90.274048%)" offset="0.992188"/><stop stop-opacity="1" stop-color="rgb(36.149597%, 88.026428%, 90.235901%)" offset="0.996094"/><stop stop-opacity="1" stop-color="rgb(36.079407%, 88.238525%, 90.19928%)" offset="1"/></linearGradient><clipPath id="59f84d2e01"><rect x="0" width="2398" y="0" height="674"/></clipPath><clipPath id="4cbc57753e"><path d="M 0.773438 0 L 2397.222656 0 L 2397.222656 674 L 0.773438 674 Z M 0.773438 0 " clip-rule="nonzero"/></clipPath><clipPath id="a6fb2c1371"><rect x="0" width="2398" y="0" height="674"/></clipPath><clipPath id="f043696f7b"><rect x="0" width="2398" y="0" height="674"/></clipPath><mask id="04b4440014"><g filter="url(#fd014df319)"><g transform="matrix(1, 0, 0, 1, 0.000000000000000222, -0.000000000000005375)"><g clip-path="url(#f043696f7b)"><g clip-path="url(#4cbc57753e)"><g transform="matrix(1, 0, 0, 1, 0.000000000000000222, -0.000000000000005375)"><g clip-path="url(#a6fb2c1371)"><g fill="#000000" fill-opacity="1"><g transform="translate(0.775144, 520.390961)"><g><path d="M 10.265625 -96.765625 C 10.265625 -96.765625 22.585938 -96.765625 47.234375 -96.765625 C 48.304688 -85.804688 50.171875 -76.789062 52.828125 -69.71875 C 55.492188 -62.644531 59.410156 -56.066406 64.578125 -49.984375 C 70.816406 -42.367188 78.765625 -36.429688 88.421875 -32.171875 C 98.085938 -27.910156 108.320312 -25.78125 119.125 -25.78125 C 138.90625 -25.78125 155.222656 -32.242188 168.078125 -45.171875 C 180.929688 -58.109375 187.359375 -74.546875 187.359375 -94.484375 C 187.359375 -116.390625 179.597656 -132.894531 164.078125 -144 C 152.972656 -151.601562 135.019531 -159.054688 110.21875 -166.359375 C 90.144531 -172.597656 76.113281 -177.65625 68.125 -181.53125 C 60.132812 -185.414062 52.71875 -190.628906 45.875 -197.171875 C 38.113281 -204.328125 32.101562 -213.34375 27.84375 -224.21875 C 23.582031 -235.09375 21.453125 -246.539062 21.453125 -258.5625 C 21.453125 -285.644531 30.460938 -307.894531 48.484375 -325.3125 C 66.515625 -342.726562 89.453125 -351.4375 117.296875 -351.4375 C 145.597656 -351.4375 168.648438 -342.84375 186.453125 -325.65625 C 204.253906 -308.46875 213.457031 -285.875 214.0625 -257.875 L 178 -257.875 C 176.78125 -276.59375 170.578125 -291.578125 159.390625 -302.828125 C 148.210938 -314.085938 133.878906 -319.71875 116.390625 -319.71875 C 99.046875 -319.71875 84.742188 -314.050781 73.484375 -302.71875 C 62.222656 -291.382812 56.59375 -276.96875 56.59375 -259.46875 C 56.59375 -251.5625 58.035156 -244.03125 60.921875 -236.875 C 63.816406 -229.726562 67.773438 -223.875 72.796875 -219.3125 C 77.515625 -215.351562 83.257812 -211.925781 90.03125 -209.03125 C 96.800781 -206.144531 108.097656 -202.34375 123.921875 -197.625 C 141.265625 -192.457031 154.460938 -187.894531 163.515625 -183.9375 C 172.566406 -179.976562 180.820312 -175.335938 188.28125 -170.015625 C 199.082031 -161.796875 207.484375 -151.21875 213.484375 -138.28125 C 219.492188 -125.351562 222.5 -111.363281 222.5 -96.3125 C 222.5 -66.945312 212.609375 -42.523438 192.828125 -23.046875 C 173.054688 -3.578125 148.1875 6.15625 118.21875 6.15625 C 87.175781 6.15625 61.84375 -3.234375 42.21875 -22.015625 C 22.59375 -40.804688 11.941406 -65.722656 10.265625 -96.765625 Z M 10.265625 -96.765625 "/></g></g></g><g fill="#000000" fill-opacity="1"><g transform="translate(233.319451, 520.390961)"><g><path d="M 29.4375 0 C 29.4375 0 29.4375 -85.195312 29.4375 -255.59375 C 29.4375 -255.59375 41 -255.59375 64.125 -255.59375 C 64.125 -255.59375 64.125 -245.78125 64.125 -226.15625 C 74.164062 -239.082031 84.625 -248.242188 95.5 -253.640625 C 106.382812 -259.046875 119.890625 -261.75 136.015625 -261.75 C 155.484375 -261.75 171.796875 -257.90625 184.953125 -250.21875 C 198.117188 -242.539062 209.722656 -230.03125 219.765625 -212.6875 C 230.410156 -229.726562 242.847656 -242.164062 257.078125 -250 C 271.304688 -257.832031 288.304688 -261.75 308.078125 -261.75 C 325.421875 -261.75 341.128906 -258.476562 355.203125 -251.9375 C 369.273438 -245.394531 380.800781 -236.039062 389.78125 -223.875 C 402.5625 -206.53125 408.953125 -182.566406 408.953125 -151.984375 L 408.953125 0 L 374.265625 0 L 374.265625 -148.109375 C 374.265625 -174.429688 369.164062 -194.054688 358.96875 -206.984375 C 353.34375 -214.140625 345.890625 -219.769531 336.609375 -223.875 C 327.328125 -227.976562 317.285156 -230.03125 306.484375 -230.03125 C 294.160156 -230.03125 282.710938 -227.253906 272.140625 -221.703125 C 261.566406 -216.148438 253.238281 -208.582031 247.15625 -199 C 240 -187.59375 236.421875 -170.628906 236.421875 -148.109375 L 236.421875 0 L 201.96875 0 L 201.96875 -149.015625 C 201.96875 -175.335938 196.1875 -194.96875 184.625 -207.90625 C 171.382812 -222.65625 154.113281 -230.03125 132.8125 -230.03125 C 111.363281 -230.03125 94.550781 -222.878906 82.375 -208.578125 C 70.207031 -194.273438 64.125 -174.421875 64.125 -149.015625 L 64.125 0 C 64.125 0 52.5625 0 29.4375 0 Z M 29.4375 0 "/></g></g></g><g fill="#000000" fill-opacity="1"><g transform="translate(671.707697, 520.390961)"><g><path d="M 289.828125 -255.59375 C 289.828125 -255.59375 289.828125 -170.394531 289.828125 0 C 289.828125 0 278.265625 0 255.140625 0 C 255.140625 0 255.140625 -14.984375 255.140625 -44.953125 C 241.597656 -26.703125 227.257812 -13.617188 212.125 -5.703125 C 196.988281 2.203125 178.617188 6.15625 157.015625 6.15625 C 130.992188 6.15625 107.523438 0.414062 86.609375 -11.0625 C 65.691406 -22.550781 49.296875 -38.453125 37.421875 -58.765625 C 25.554688 -79.078125 19.625 -101.859375 19.625 -127.109375 C 19.625 -152.367188 25.476562 -175.265625 37.1875 -195.796875 C 48.90625 -216.335938 65.035156 -232.460938 85.578125 -244.171875 C 106.117188 -255.890625 129.015625 -261.75 154.265625 -261.75 C 176.628906 -261.75 195.835938 -257.679688 211.890625 -249.546875 C 227.941406 -241.410156 242.359375 -228.363281 255.140625 -210.40625 L 255.140625 -255.59375 Z M 153.8125 -230.03125 C 126.425781 -230.03125 103.070312 -220.140625 83.75 -200.359375 C 64.425781 -180.585938 54.765625 -156.628906 54.765625 -128.484375 C 54.765625 -99.722656 64.65625 -75.414062 84.4375 -55.5625 C 104.21875 -35.707031 128.253906 -25.78125 156.546875 -25.78125 C 184.390625 -25.78125 207.78125 -35.628906 226.71875 -55.328125 C 245.664062 -75.035156 255.140625 -99.421875 255.140625 -128.484375 C 255.140625 -157.546875 245.476562 -181.734375 226.15625 -201.046875 C 206.832031 -220.367188 182.71875 -230.03125 153.8125 -230.03125 Z M 153.8125 -230.03125 "/></g></g></g><g fill="#000000" fill-opacity="1"><g transform="translate(990.742901, 520.390961)"><g><path d="M 29.4375 0 C 29.4375 0 29.4375 -85.195312 29.4375 -255.59375 C 29.4375 -255.59375 41 -255.59375 64.125 -255.59375 C 64.125 -255.59375 64.125 -243.5 64.125 -219.3125 C 70.820312 -233.3125 79.910156 -243.65625 91.390625 -250.34375 C 102.878906 -257.039062 117.90625 -260.84375 136.46875 -261.75 L 136.46875 -227.53125 C 88.238281 -222.957031 64.125 -196.785156 64.125 -149.015625 C 64.125 -149.015625 64.125 -99.34375 64.125 0 C 64.125 0 52.5625 0 29.4375 0 Z M 29.4375 0 "/></g></g></g><g fill="#000000" fill-opacity="1"><g transform="translate(1145.696531, 520.390961)"><g><path d="M 60.703125 0 C 60.703125 0 60.703125 -74.773438 60.703125 -224.328125 C 60.703125 -224.328125 42.367188 -224.328125 5.703125 -224.328125 C 5.703125 -224.328125 5.703125 -234.75 5.703125 -255.59375 C 5.703125 -255.59375 24.035156 -255.59375 60.703125 -255.59375 C 60.703125 -255.59375 60.703125 -285.488281 60.703125 -345.28125 C 60.703125 -345.28125 72.265625 -345.28125 95.390625 -345.28125 C 95.390625 -345.28125 95.390625 -315.382812 95.390625 -255.59375 C 95.390625 -255.59375 114.5625 -255.59375 152.90625 -255.59375 C 152.90625 -255.59375 152.90625 -245.171875 152.90625 -224.328125 C 152.90625 -224.328125 133.734375 -224.328125 95.390625 -224.328125 C 95.390625 -224.328125 95.390625 -149.550781 95.390625 0 C 95.390625 0 83.828125 0 60.703125 0 Z M 60.703125 0 "/></g></g></g><g fill="#000000" fill-opacity="1"><g transform="translate(1304.073071, 520.390961)"><g><path d="M 321.546875 -90.59375 C 321.546875 -90.59375 334.328125 -90.59375 359.890625 -90.59375 C 325.046875 -26.09375 272.40625 6.15625 201.96875 6.15625 C 176.5625 6.15625 152.597656 1.59375 130.078125 -7.53125 C 107.566406 -16.65625 88.320312 -29.09375 72.34375 -44.84375 C 56.363281 -60.59375 43.734375 -79.457031 34.453125 -101.4375 C 25.171875 -123.425781 20.53125 -146.816406 20.53125 -171.609375 C 20.53125 -205.535156 28.25 -236.226562 43.6875 -263.6875 C 59.132812 -291.15625 80.515625 -312.644531 107.828125 -328.15625 C 135.140625 -343.675781 165.679688 -351.4375 199.453125 -351.4375 C 235.203125 -351.4375 267.300781 -342.878906 295.75 -325.765625 C 324.207031 -308.648438 345.128906 -285.257812 358.515625 -255.59375 L 319.71875 -255.59375 C 313.03125 -266.394531 306.796875 -274.835938 301.015625 -280.921875 C 295.234375 -287.015625 288.234375 -292.644531 280.015625 -297.8125 C 256.890625 -312.414062 230.566406 -319.71875 201.046875 -319.71875 C 180.660156 -319.71875 161.488281 -315.953125 143.53125 -308.421875 C 125.582031 -300.890625 110.179688 -290.617188 97.328125 -277.609375 C 84.472656 -264.609375 74.316406 -249.054688 66.859375 -230.953125 C 59.410156 -212.847656 55.6875 -193.523438 55.6875 -172.984375 C 55.6875 -153.054688 59.523438 -134 67.203125 -115.8125 C 74.890625 -97.632812 85.273438 -81.960938 98.359375 -68.796875 C 111.441406 -55.640625 126.957031 -45.179688 144.90625 -37.421875 C 162.863281 -29.660156 181.734375 -25.78125 201.515625 -25.78125 C 217.640625 -25.78125 233.269531 -28.367188 248.40625 -33.546875 C 263.539062 -38.722656 277.046875 -46.101562 288.921875 -55.6875 C 300.023438 -64.96875 310.898438 -76.601562 321.546875 -90.59375 Z M 321.546875 -90.59375 "/></g></g></g><g fill="#000000" fill-opacity="1"><g transform="translate(1684.039917, 520.390961)"><g><path d="M 167.734375 -128.9375 C 167.734375 -128.9375 199.988281 -85.957031 264.5 0 C 264.5 0 250.195312 0 221.59375 0 C 221.59375 0 182.796875 -52.179688 105.203125 -156.546875 C 142.328125 -156.546875 168.800781 -158.753906 184.625 -163.171875 C 217.9375 -173.054688 234.59375 -197.019531 234.59375 -235.0625 C 234.59375 -250.882812 231.4375 -264.5 225.125 -275.90625 C 218.8125 -287.3125 209.800781 -295.832031 198.09375 -301.46875 C 180.4375 -309.832031 153.960938 -314.015625 118.671875 -314.015625 L 70.0625 -314.015625 C 70.0625 -314.015625 70.0625 -209.34375 70.0625 0 C 70.0625 0 58.570312 0 35.59375 0 C 35.59375 0 35.59375 -115.09375 35.59375 -345.28125 C 35.59375 -345.28125 64.046875 -345.28125 120.953125 -345.28125 C 165.984375 -345.28125 199.070312 -339.421875 220.21875 -327.703125 C 236.34375 -318.273438 248.628906 -305.648438 257.078125 -289.828125 C 265.523438 -274.003906 269.75 -255.59375 269.75 -234.59375 C 269.75 -203.71875 261.035156 -179.265625 243.609375 -161.234375 C 226.191406 -143.203125 200.898438 -132.4375 167.734375 -128.9375 Z M 167.734375 -128.9375 "/></g></g></g><g fill="#000000" fill-opacity="1"><g transform="translate(1967.702888, 520.390961)"><g><path d="M 35.59375 0 C 35.59375 0 35.59375 -115.09375 35.59375 -345.28125 C 35.59375 -345.28125 53.472656 -345.28125 89.234375 -345.28125 C 89.234375 -345.28125 131.144531 -247.300781 214.96875 -51.34375 C 214.96875 -51.34375 256.734375 -149.320312 340.265625 -345.28125 C 340.265625 -345.28125 358.140625 -345.28125 393.890625 -345.28125 C 393.890625 -345.28125 393.890625 -230.1875 393.890625 0 C 393.890625 0 382.40625 0 359.4375 0 C 359.4375 0 359.4375 -102.539062 359.4375 -307.625 C 359.4375 -307.625 316.148438 -205.082031 229.578125 0 C 229.578125 0 219.535156 0 199.453125 0 C 199.453125 0 156.320312 -102.539062 70.0625 -307.625 C 70.0625 -307.625 70.0625 -205.082031 70.0625 0 C 70.0625 0 58.570312 0 35.59375 0 Z M 35.59375 0 "/></g></g></g></g></g></g></g></g></g></mask><clipPath id="f7ea7419d9"><path d="M 0.773438 0 L 2397.222656 0 L 2397.222656 674 L 0.773438 674 Z M 0.773438 0 " clip-rule="nonzero"/></clipPath><clipPath id="0f786535e5"><rect x="0" width="2398" y="0" height="674"/></clipPath><clipPath id="38f99e58e3"><rect x="0" width="2398" y="0" height="674"/></clipPath><clipPath id="2b5543cb02"><rect x="0" width="2398" y="0" height="674"/></clipPath></defs><g clip-path="url(#9e49b284af)"><g transform="matrix(1, 0, 0, 1, 1, -0.000000000000005375)"><g clip-path="url(#2b5543cb02)"><g clip-path="url(#e13bfcb143)"><g transform="matrix(1, 0, 0, 1, 0.000000000000000222, -0.000000000000005375)"><g clip-path="url(#38f99e58e3)"><g clip-path="url(#7f401a51ac)"><g mask="url(#04b4440014)"><g transform="matrix(1, 0, 0, 1, 0.000000000000000222, -0.000000000000005375)"><g clip-path="url(#0f786535e5)"><g clip-path="url(#f7ea7419d9)"><path fill="url(#a8578dd01d)" d="M 0.773438 0 L 0.773438 674 L 2397.226562 674 L 2397.226562 0 Z M 0.773438 0 " fill-rule="nonzero"/></g></g></g></g></g></g></g></g></g></g></g></svg>